<svg width="16" height="17" viewBox="0 0 16 17" fill="none" xmlns="http://www.w3.org/2000/svg">
<path d="M9.81557 10.3895C10.3178 9.88728 10.5689 9.28125 10.5689 8.57143C10.5689 7.86161 10.3178 7.25558 9.81557 6.75335C9.31334 6.25112 8.70731 6 7.99749 6C7.28767 6 6.68164 6.25112 6.17941 6.75335C5.67718 7.25558 5.42606 7.86161 5.42606 8.57143C5.42606 9.28125 5.67718 9.88728 6.17941 10.3895C6.68164 10.8917 7.28767 11.1429 7.99749 11.1429C8.70731 11.1429 9.31334 10.8917 9.81557 10.3895ZM10.7999 5.76897C11.57 6.53906 11.9551 7.47321 11.9551 8.57143C11.9551 9.66964 11.57 10.6038 10.7999 11.3739C10.0299 12.144 9.0957 12.529 7.99749 12.529C6.89927 12.529 5.96512 12.144 5.19503 11.3739C4.42494 10.6038 4.0399 9.66964 4.0399 8.57143C4.0399 7.47321 4.42494 6.53906 5.19503 5.76897C5.96512 4.99888 6.89927 4.61384 7.99749 4.61384C9.0957 4.61384 10.0299 4.99888 10.7999 5.76897ZM12.7687 3.80022C12.9495 3.98103 13.0399 4.19866 13.0399 4.45312C13.0399 4.70759 12.9495 4.92522 12.7687 5.10603C12.5879 5.28683 12.3703 5.37723 12.1158 5.37723C11.8613 5.37723 11.6437 5.28683 11.4629 5.10603C11.2821 4.92522 11.1917 4.70759 11.1917 4.45312C11.1917 4.19866 11.2821 3.98103 11.4629 3.80022C11.6437 3.61942 11.8613 3.52902 12.1158 3.52902C12.3703 3.52902 12.5879 3.61942 12.7687 3.80022ZM8.76088 2.2433C8.29883 2.2433 8.04436 2.2433 7.99749 2.2433C7.95061 2.2433 7.6928 2.2433 7.22405 2.2433C6.762 2.23661 6.41044 2.23661 6.16936 2.2433C5.92829 2.2433 5.60352 2.25335 5.19503 2.27344C4.79325 2.28683 4.44838 2.32031 4.16044 2.37388C3.87919 2.42076 3.64146 2.48103 3.44727 2.55469C3.11244 2.68862 2.8178 2.88281 2.56334 3.13728C2.30887 3.39174 2.11468 3.68638 1.98075 4.02121C1.90709 4.2154 1.84347 4.45647 1.7899 4.74442C1.74302 5.02567 1.70954 5.37054 1.68945 5.77902C1.67606 6.1808 1.66602 6.50223 1.65932 6.7433C1.65932 6.98438 1.65932 7.33929 1.65932 7.80804C1.66602 8.27009 1.66936 8.52455 1.66936 8.57143C1.66936 8.6183 1.66602 8.87612 1.65932 9.34487C1.65932 9.80692 1.65932 10.1585 1.65932 10.3996C1.66602 10.6406 1.67606 10.9654 1.68945 11.3739C1.70954 11.7757 1.74302 12.1205 1.7899 12.4085C1.84347 12.6897 1.90709 12.9275 1.98075 13.1217C2.11468 13.4565 2.30887 13.7511 2.56334 14.0056C2.8178 14.26 3.11244 14.4542 3.44727 14.5882C3.64146 14.6618 3.87919 14.7254 4.16044 14.779C4.44838 14.8259 4.79325 14.8594 5.19503 14.8795C5.60352 14.8929 5.92829 14.9029 6.16936 14.9096C6.41044 14.9096 6.762 14.9096 7.22405 14.9096C7.6928 14.9029 7.95061 14.8996 7.99749 14.8996C8.04436 14.8996 8.29883 14.9029 8.76088 14.9096C9.22963 14.9096 9.58454 14.9096 9.82561 14.9096C10.0667 14.9029 10.3881 14.8929 10.7899 14.8795C11.1984 14.8594 11.5432 14.8259 11.8245 14.779C12.1124 14.7254 12.3535 14.6618 12.5477 14.5882C12.8825 14.4542 13.1772 14.26 13.4316 14.0056C13.6861 13.7511 13.8803 13.4565 14.0142 13.1217C14.0879 12.9275 14.1482 12.6897 14.195 12.4085C14.2486 12.1205 14.2821 11.7757 14.2955 11.3739C14.3156 10.9654 14.3256 10.6406 14.3256 10.3996C14.3323 10.1585 14.3323 9.80692 14.3256 9.34487C14.3256 8.87612 14.3256 8.6183 14.3256 8.57143C14.3256 8.52455 14.3256 8.27009 14.3256 7.80804C14.3323 7.33929 14.3323 6.98438 14.3256 6.7433C14.3256 6.50223 14.3156 6.1808 14.2955 5.77902C14.2821 5.37054 14.2486 5.02567 14.195 4.74442C14.1482 4.45647 14.0879 4.2154 14.0142 4.02121C13.8803 3.68638 13.6861 3.39174 13.4316 3.13728C13.1772 2.88281 12.8825 2.68862 12.5477 2.55469C12.3535 2.48103 12.1124 2.42076 11.8245 2.37388C11.5432 2.32031 11.1984 2.28683 10.7899 2.27344C10.3881 2.25335 10.0667 2.2433 9.82561 2.2433C9.58454 2.23661 9.22963 2.23661 8.76088 2.2433ZM15.6616 5.38728C15.695 5.97656 15.7118 7.03795 15.7118 8.57143C15.7118 10.1049 15.695 11.1663 15.6616 11.7556C15.5946 13.1484 15.1794 14.2266 14.416 14.99C13.6526 15.7533 12.5745 16.1685 11.1816 16.2355C10.5924 16.269 9.53097 16.2857 7.99749 16.2857C6.46401 16.2857 5.40262 16.269 4.81334 16.2355C3.42048 16.1685 2.34235 15.7533 1.57896 14.99C0.815569 14.2266 0.400391 13.1484 0.333426 11.7556C0.299944 11.1663 0.283203 10.1049 0.283203 8.57143C0.283203 7.03795 0.299944 5.97656 0.333426 5.38728C0.400391 3.99442 0.815569 2.91629 1.57896 2.1529C2.34235 1.38951 3.42048 0.97433 4.81334 0.907366C5.40262 0.873884 6.46401 0.857143 7.99749 0.857143C9.53097 0.857143 10.5924 0.873884 11.1816 0.907366C12.5745 0.97433 13.6526 1.38951 14.416 2.1529C15.1794 2.91629 15.5946 3.99442 15.6616 5.38728Z" fill="#999999"/>
</svg>
