<svg width="16" height="17" viewBox="0 0 16 17" fill="none" xmlns="http://www.w3.org/2000/svg">
<path d="M12.8189 0.857143C13.6158 0.857143 14.2955 1.14174 14.858 1.71094C15.4272 2.27344 15.7118 2.95313 15.7118 3.75V13.3929C15.7118 14.1897 15.4272 14.8694 14.858 15.4319C14.2955 16.0011 13.6158 16.2857 12.8189 16.2857H10.9305V10.3092H12.9294L13.2307 7.97879H10.9305V6.49219C10.9305 6.11719 11.0075 5.83594 11.1616 5.64844C11.3223 5.46094 11.6303 5.36719 12.0857 5.36719L13.3111 5.35714V3.2779C12.8892 3.21763 12.2932 3.1875 11.5232 3.1875C10.6124 3.1875 9.88253 3.45536 9.33343 3.99107C8.79102 4.52679 8.51981 5.28348 8.51981 6.26116V7.97879H6.51088V10.3092H8.51981V16.2857H3.17606C2.37919 16.2857 1.69615 16.0011 1.12695 15.4319C0.564453 14.8694 0.283203 14.1897 0.283203 13.3929V3.75C0.283203 2.95313 0.564453 2.27344 1.12695 1.71094C1.69615 1.14174 2.37919 0.857143 3.17606 0.857143H12.8189Z" fill="#999999"/>
</svg>
