<?xml version="1.0" encoding="UTF-8" standalone="no"?>
<!DOCTYPE svg PUBLIC "-//W3C//DTD SVG 1.1//EN" "http://www.w3.org/Graphics/SVG/1.1/DTD/svg11.dtd">
<svg width="100%" height="100%" viewBox="0 0 138 112" version="1.1" xmlns="http://www.w3.org/2000/svg" xmlns:xlink="http://www.w3.org/1999/xlink" xml:space="preserve" xmlns:serif="http://www.serif.com/" style="fill-rule:evenodd;clip-rule:evenodd;stroke-linejoin:round;stroke-miterlimit:2;">
    <g transform="matrix(0.1,0,0,-0.1,0,112)">
        <path d="M480,791C442,751 440,746 440,685C440,649 444,620 449,620C454,620 461,608 465,593C473,559 674,360 700,360C726,360 927,559 935,593C939,608 946,620 951,620C956,620 960,649 960,685C960,746 958,751 920,791L881,832L805,828C744,825 725,821 714,805C700,786 700,786 686,805C675,821 656,825 595,828L519,832L480,791Z" style="fill:white;fill-rule:nonzero;"/>
    </g>
</svg>
