<?xml version="1.0" encoding="UTF-8" standalone="no"?>
<!DOCTYPE svg PUBLIC "-//W3C//DTD SVG 1.1//EN" "http://www.w3.org/Graphics/SVG/1.1/DTD/svg11.dtd">
<svg width="100%" height="100%" viewBox="0 0 200 158" version="1.1" xmlns="http://www.w3.org/2000/svg" xmlns:xlink="http://www.w3.org/1999/xlink" xml:space="preserve" xmlns:serif="http://www.serif.com/" style="fill-rule:evenodd;clip-rule:evenodd;stroke-linejoin:round;stroke-miterlimit:2;">
    <g transform="matrix(0.1,0,0,-0.1,0.021875,161.679)">
        <path d="M902,1120C879,1110 860,1097 832,1068C780,1017 770,988 770,900C770,812 780,783 832,732C881,682 912,670 987,670L1043,670L1038,720C1032,779 1043,790 1107,790C1145,790 1202,821 1222,852C1233,871 1232,974 1219,1007C1205,1046 1126,1116 1088,1124C1043,1133 929,1130 902,1120ZM960,1040C960,1027 953,1020 940,1020C927,1020 920,1027 920,1040C920,1053 927,1060 940,1060C953,1060 960,1053 960,1040ZM1080,1040C1080,1027 1073,1020 1060,1020C1047,1020 1040,1027 1040,1040C1040,1053 1047,1060 1060,1060C1073,1060 1080,1053 1080,1040ZM880,940C880,927 873,920 860,920C847,920 840,927 840,940C840,953 847,960 860,960C873,960 880,953 880,940ZM1160,940C1160,927 1153,920 1140,920C1127,920 1120,927 1120,940C1120,953 1127,960 1140,960C1153,960 1160,953 1160,940Z" style="fill:white;fill-rule:nonzero;"/>
    </g>
</svg>
