<?xml version="1.0" encoding="UTF-8" standalone="no"?>
<!DOCTYPE svg PUBLIC "-//W3C//DTD SVG 1.1//EN" "http://www.w3.org/Graphics/SVG/1.1/DTD/svg11.dtd">
<svg width="100%" height="100%" viewBox="0 0 464 350" version="1.1" xmlns="http://www.w3.org/2000/svg" xmlns:xlink="http://www.w3.org/1999/xlink" xml:space="preserve" xmlns:serif="http://www.serif.com/" style="fill-rule:evenodd;clip-rule:evenodd;stroke-linejoin:round;stroke-miterlimit:2;">
    <g transform="matrix(0.1,0,0,-0.1,0,350)">
        <g transform="matrix(10,0,0,-10,-80.2107,3500)">
            <path d="M247.5,174.2C248.3,176 249.9,178.8 251,180.5C252.1,182.1 253.7,184.8 254.6,186.5C255.4,188.1 257.2,191.3 258.5,193.5C259.8,195.7 261.6,198.8 262.5,200.5C263.3,202.1 264.9,204.8 266,206.5C267.1,208.1 268.5,210.6 269.1,212C269.7,213.4 270.6,215.3 271.1,216.3C271.7,217.3 271.8,218.4 271.6,218.9C270.7,220.3 259.3,227.8 256.9,228.5C255.6,228.9 253.6,229.9 252.5,230.6C251.4,231.4 249.6,232 248.5,232C247.4,232 245.2,232.7 243.5,233.6C239.9,235.6 217.5,236.7 212,235.3C207.8,234.2 206.9,231.2 209.6,227.2C212.3,223.2 214.7,218.9 216,215.7C216.7,214.2 217.6,213 218,213C218.4,213 219.3,211.8 219.9,210.2C220.5,208.7 222.1,205.7 223.4,203.5C224.8,201.3 226.6,198.1 227.4,196.5C228.3,194.8 229.9,192.1 231,190.5C232.1,188.8 233.7,186.1 234.6,184.5C235.4,182.8 236.8,180.1 237.7,178.5C239.8,174.5 243,171 244.7,171C245.4,171 246.7,172.5 247.5,174.2Z" style="fill:rgb(85,85,85);"/>
        </g>
        <g transform="matrix(10,0,0,-10,-80.2107,3500)">
            <path d="M224.4,183.6C224.8,184.5 224.3,186.5 223.3,187.9C220.7,191.7 219.2,194.1 217.5,197.5C216.6,199.1 214.8,202.3 213.5,204.5C212.2,206.7 210.6,209.6 210,211C209.4,212.3 208.5,213.7 208.1,214C207.3,214.5 205.2,218.1 202.6,223.5C201.8,225.1 200,227.6 198.7,228.9C196.3,231.1 196,231.1 193.8,229.6C192.6,228.7 191,228 190.4,228C188.4,228 175.9,219.2 170.6,214.2C166.5,210.1 156,195.9 156,194.3C156,194 155,191.8 153.9,189.4C150,181.7 148.5,182 188.4,182C220.3,182 223.8,182.2 224.4,183.6Z" style="fill:rgb(85,85,85);"/>
        </g>
        <g transform="matrix(10,0,0,-10,-80.2107,3500)">
            <path d="M298.7,145.3C299.1,145.8 299.5,152.3 299.5,159.8C299.5,173.9 298.4,179.6 293.9,189.6C292.8,191.9 292,194 292,194.3C292,195.7 282.7,208.6 281.2,209.2C277.4,210.7 277.4,210.7 272.5,201.5C271.6,199.8 269.8,196.7 268.4,194.5C267.1,192.3 265.3,189.1 264.5,187.5C263.6,185.8 262,183.1 261,181.5C259.9,179.8 258.3,177.1 257.4,175.5C256.6,173.8 254.8,170.7 253.5,168.5C252.2,166.3 250.4,163.1 249.6,161.5C247.8,158.1 246.3,155.6 243.8,152.1C241.7,149.3 241.4,145.4 243.3,144.6C245.3,143.8 297.8,144.4 298.7,145.3Z" style="fill:rgb(85,85,85);"/>
        </g>
        <g transform="matrix(10,0,0,-10,-80.2107,3500)">
            <path d="M172.3,113.2C173.3,115 174.9,117.8 176,119.5C177.1,121.1 178.7,123.8 179.5,125.5C180.4,127.1 182.2,130.3 183.5,132.5C184.8,134.7 186.6,137.8 187.4,139.5C188.3,141.1 189.9,143.8 191,145.5C192.1,147.1 193.7,149.8 194.5,151.5C195.4,153.1 197.2,156.3 198.5,158.5C199.8,160.7 201.4,163.5 202,164.8C202.5,166.1 203.7,167.8 204.5,168.6C206.5,170.6 206.4,174.6 204.4,175.4C201.8,176.4 151.6,176.1 150,175C147.7,173.6 147.9,144.7 150.3,140.5C151.2,138.8 152,136.6 152,135.5C152,134.4 152.6,132.6 153.4,131.5C154.1,130.4 155,128.5 155.4,127.2C156.6,123.5 164.8,111.6 166.7,110.8C169.8,109.6 170.6,109.9 172.3,113.2Z" style="fill:rgb(85,85,85);"/>
        </g>
        <g transform="matrix(10,0,0,-10,-80.2107,3500)">
            <path d="M237.4,85C240.6,86.2 240.8,89.7 238,93.3C236.9,94.7 236,96.3 236,96.8C236,97.4 235.4,98.5 234.7,99.2C233.4,100.4 232.1,102.6 228.5,109.5C227.6,111.1 225.8,114.3 224.5,116.5C223.2,118.7 221.6,121.7 220.9,123.2C220.3,124.8 219.4,126 219,126C218.6,126 217.7,127.2 217.1,128.7C216.4,130.3 214.8,133.3 213.5,135.5C212.1,137.7 210.6,140.6 210,141.9C208.6,145 204.9,149 203.3,149C202.6,149 201.3,147.5 200.5,145.7C199.7,144 198.1,141.1 197,139.5C195.9,137.8 194.3,135.1 193.4,133.5C192.6,131.8 190.8,128.7 189.5,126.5C188.1,124.3 186.6,121.4 186,120C185.4,118.7 184.5,117.3 184.1,117C183.2,116.4 181.1,112.6 178,106.1L175.9,101.7L178.1,99.4C179.3,98.1 181.7,96.4 183.4,95.5C185.1,94.6 189,92.5 192,90.9C195,89.3 198.3,88 199.3,88C200.3,88 202.1,87.5 203.3,86.8C204.5,86.2 207.1,85.3 209,84.9C214.4,83.8 234.6,83.9 237.4,85Z" style="fill:rgb(85,85,85);"/>
        </g>
        <g transform="matrix(10,0,0,-10,-80.2107,3500)">
            <path d="M253.4,89.9C253.7,90.4 255.1,91.1 256.4,91.4C260.2,92.3 270.9,99.7 276.9,105.4C281.4,109.7 292,124 292,125.7C292,126 293,128.2 294.1,130.6C298,138.3 299.6,138 259.5,138C220.3,138 220.4,138 224.9,132C226,130.4 227,128.6 227,128.1C227,127.6 227.6,126.5 228.3,125.8C229,125.1 230.1,123.4 230.8,122C232.6,118.6 235.6,113.3 238.5,108.5C239.8,106.3 241.4,103.3 242.1,101.7C242.7,100.2 243.6,99 244.1,99C244.6,99 245,98.3 245,97.5C245,95.9 250.7,89 252,89C252.5,89 253.1,89.4 253.4,89.9Z" style="fill:rgb(85,85,85);"/>
        </g>
        <g transform="matrix(10,0,0,-10,-80.2107,3500)">
            <path d="M247.5,174.2C248.3,176 249.9,178.8 251,180.5C252.1,182.1 253.7,184.8 254.6,186.5C255.4,188.1 257.2,191.3 258.5,193.5C259.8,195.7 261.6,198.8 262.5,200.5C263.3,202.1 264.9,204.8 266,206.5C267.1,208.1 268.5,210.6 269.1,212C269.7,213.4 270.6,215.3 271.1,216.3C271.7,217.3 271.8,218.4 271.6,218.9C270.7,220.3 259.3,227.8 256.9,228.5C255.6,228.9 253.6,229.9 252.5,230.6C251.4,231.4 249.6,232 248.5,232C247.4,232 245.2,232.7 243.5,233.6C239.9,235.6 217.5,236.7 212,235.3C207.8,234.2 206.9,231.2 209.6,227.2C212.3,223.2 214.7,218.9 216,215.7C216.7,214.2 217.6,213 218,213C218.4,213 219.3,211.8 219.9,210.2C220.5,208.7 222.1,205.7 223.4,203.5C224.8,201.3 226.6,198.1 227.4,196.5C228.3,194.8 229.9,192.1 231,190.5C232.1,188.8 233.7,186.1 234.6,184.5C235.4,182.8 236.8,180.1 237.7,178.5C239.8,174.5 243,171 244.7,171C245.4,171 246.7,172.5 247.5,174.2Z" style="fill:rgb(85,85,85);"/>
        </g>
        <g transform="matrix(10,0,0,-10,-80.2107,3500)">
            <path d="M224.4,183.6C224.8,184.5 224.3,186.5 223.3,187.9C220.7,191.7 219.2,194.1 217.5,197.5C216.6,199.1 214.8,202.3 213.5,204.5C212.2,206.7 210.6,209.6 210,211C209.4,212.3 208.5,213.7 208.1,214C207.3,214.5 205.2,218.1 202.6,223.5C201.8,225.1 200,227.6 198.7,228.9C196.3,231.1 196,231.1 193.8,229.6C192.6,228.7 191,228 190.4,228C188.4,228 175.9,219.2 170.6,214.2C166.5,210.1 156,195.9 156,194.3C156,194 155,191.8 153.9,189.4C150,181.7 148.5,182 188.4,182C220.3,182 223.8,182.2 224.4,183.6Z" style="fill:rgb(85,85,85);"/>
        </g>
        <g transform="matrix(10,0,0,-10,-80.2107,3500)">
            <path d="M298.7,145.3C299.1,145.8 299.5,152.3 299.5,159.8C299.5,173.9 298.4,179.6 293.9,189.6C292.8,191.9 292,194 292,194.3C292,195.7 282.7,208.6 281.2,209.2C277.4,210.7 277.4,210.7 272.5,201.5C271.6,199.8 269.8,196.7 268.4,194.5C267.1,192.3 265.3,189.1 264.5,187.5C263.6,185.8 262,183.1 261,181.5C259.9,179.8 258.3,177.1 257.4,175.5C256.6,173.8 254.8,170.7 253.5,168.5C252.2,166.3 250.4,163.1 249.6,161.5C247.8,158.1 246.3,155.6 243.8,152.1C241.7,149.3 241.4,145.4 243.3,144.6C245.3,143.8 297.8,144.4 298.7,145.3Z" style="fill:rgb(85,85,85);"/>
        </g>
        <g transform="matrix(10,0,0,-10,-80.2107,3500)">
            <path d="M172.3,113.2C173.3,115 174.9,117.8 176,119.5C177.1,121.1 178.7,123.8 179.5,125.5C180.4,127.1 182.2,130.3 183.5,132.5C184.8,134.7 186.6,137.8 187.4,139.5C188.3,141.1 189.9,143.8 191,145.5C192.1,147.1 193.7,149.8 194.5,151.5C195.4,153.1 197.2,156.3 198.5,158.5C199.8,160.7 201.4,163.5 202,164.8C202.5,166.1 203.7,167.8 204.5,168.6C206.5,170.6 206.4,174.6 204.4,175.4C201.8,176.4 151.6,176.1 150,175C147.7,173.6 147.9,144.7 150.3,140.5C151.2,138.8 152,136.6 152,135.5C152,134.4 152.6,132.6 153.4,131.5C154.1,130.4 155,128.5 155.4,127.2C156.6,123.5 164.8,111.6 166.7,110.8C169.8,109.6 170.6,109.9 172.3,113.2Z" style="fill:rgb(85,85,85);"/>
        </g>
        <g transform="matrix(10,0,0,-10,-80.2107,3500)">
            <path d="M237.4,85C240.6,86.2 240.8,89.7 238,93.3C236.9,94.7 236,96.3 236,96.8C236,97.4 235.4,98.5 234.7,99.2C233.4,100.4 232.1,102.6 228.5,109.5C227.6,111.1 225.8,114.3 224.5,116.5C223.2,118.7 221.6,121.7 220.9,123.2C220.3,124.8 219.4,126 219,126C218.6,126 217.7,127.2 217.1,128.7C216.4,130.3 214.8,133.3 213.5,135.5C212.1,137.7 210.6,140.6 210,141.9C208.6,145 204.9,149 203.3,149C202.6,149 201.3,147.5 200.5,145.7C199.7,144 198.1,141.1 197,139.5C195.9,137.8 194.3,135.1 193.4,133.5C192.6,131.8 190.8,128.7 189.5,126.5C188.1,124.3 186.6,121.4 186,120C185.4,118.7 184.5,117.3 184.1,117C183.2,116.4 181.1,112.6 178,106.1L175.9,101.7L178.1,99.4C179.3,98.1 181.7,96.4 183.4,95.5C185.1,94.6 189,92.5 192,90.9C195,89.3 198.3,88 199.3,88C200.3,88 202.1,87.5 203.3,86.8C204.5,86.2 207.1,85.3 209,84.9C214.4,83.8 234.6,83.9 237.4,85Z" style="fill:rgb(85,85,85);"/>
        </g>
        <g transform="matrix(10,0,0,-10,-80.2107,3500)">
            <path d="M253.4,89.9C253.7,90.4 255.1,91.1 256.4,91.4C260.2,92.3 270.9,99.7 276.9,105.4C281.4,109.7 292,124 292,125.7C292,126 293,128.2 294.1,130.6C298,138.3 299.6,138 259.5,138C220.3,138 220.4,138 224.9,132C226,130.4 227,128.6 227,128.1C227,127.6 227.6,126.5 228.3,125.8C229,125.1 230.1,123.4 230.8,122C232.6,118.6 235.6,113.3 238.5,108.5C239.8,106.3 241.4,103.3 242.1,101.7C242.7,100.2 243.6,99 244.1,99C244.6,99 245,98.3 245,97.5C245,95.9 250.7,89 252,89C252.5,89 253.1,89.4 253.4,89.9Z" style="fill:rgb(85,85,85);"/>
        </g>
    </g>
</svg>
