<svg width="17" height="13" viewBox="0 0 17 13" fill="none" xmlns="http://www.w3.org/2000/svg">
<path d="M16.4139 1.66964C15.9653 2.32589 15.4229 2.88504 14.7867 3.3471C14.7934 3.44085 14.7967 3.58147 14.7967 3.76897C14.7967 4.63951 14.6695 5.51004 14.415 6.38058C14.1606 7.24442 13.7722 8.07478 13.2499 8.87165C12.7342 9.66853 12.1182 10.375 11.4016 10.9911C10.6851 11.6004 9.82129 12.0893 8.81013 12.4576C7.79897 12.8192 6.71749 13 5.56571 13C3.75098 13 2.09026 12.5145 0.583566 11.5435C0.817941 11.5703 1.0791 11.5837 1.36705 11.5837C2.87374 11.5837 4.21638 11.1217 5.39495 10.1975C4.69182 10.1842 4.06236 9.96987 3.50656 9.55469C2.95075 9.13281 2.56906 8.5971 2.36147 7.94754C2.58245 7.98103 2.78669 7.99777 2.97419 7.99777C3.26214 7.99777 3.54674 7.96094 3.82799 7.88728C3.07799 7.73326 2.45522 7.36161 1.95968 6.77232C1.47084 6.17634 1.22642 5.48661 1.22642 4.70312V4.66295C1.68178 4.91741 2.17062 5.05469 2.69294 5.07478C2.25098 4.78013 1.89941 4.39509 1.63825 3.91964C1.37709 3.4442 1.24651 2.92857 1.24651 2.37277C1.24651 1.78348 1.39383 1.23772 1.68848 0.735491C2.49874 1.73326 3.48312 2.53348 4.6416 3.13616C5.80678 3.73214 7.05232 4.06362 8.37821 4.13058C8.32464 3.87612 8.29785 3.62835 8.29785 3.38728C8.29785 2.48995 8.61258 1.72656 9.24205 1.0971C9.87821 0.460938 10.6449 0.142857 11.5423 0.142857C12.4798 0.142857 13.2699 0.484375 13.9128 1.16741C14.6427 1.02679 15.3291 0.765625 15.972 0.383928C15.7242 1.15402 15.2487 1.75 14.5456 2.17188C15.1684 2.10491 15.7912 1.9375 16.4139 1.66964Z" fill="#999999"/>
</svg>
